<?xml version="1.0" encoding="utf-8"?>
<!-- Generator: Adobe Illustrator 16.0.0, SVG Export Plug-In . SVG Version: 6.00 Build 0)  -->
<!DOCTYPE svg PUBLIC "-//W3C//DTD SVG 1.1//EN" "http://www.w3.org/Graphics/SVG/1.1/DTD/svg11.dtd">
<svg version="1.1" id="Layer_1" xmlns="http://www.w3.org/2000/svg" xmlns:xlink="http://www.w3.org/1999/xlink" x="0px" y="0px"
	 width="1802px" height="736px" viewBox="0 0 1802 736" enable-background="new 0 0 1802 736" xml:space="preserve">
<g>
	<path fill="#FFFFFF" d="M897.47,78.55c19.21-11.54,41.65-16.47,63.8-18.02c33.931-2.16,67.94,2.5,100.98,10
		c53.45,10.979,107.59,19.01,162.1,22.11c28.311,1.56,56.771,1.67,85-1.31c1.36-0.11,2.75-0.18,4.15-0.21
		c-5.939,4.02-13.08,5.65-19.88,7.56c-27.33,6.55-55.64,6.92-83.58,6.5c-53.8-1.63-107.2-9.459-160.04-19.34
		c-29.66-6.14-60.25-8.38-90.431-5.39c-19.579,2.14-39.479,6.91-56.02,18.04c-11.52,7.71-20.5,19.26-24.53,32.57
		c-3.57,10.9-3.75,22.54-2.88,33.88c-7.37,0.34-14.75,0.5-22.12,0.5c-1.13-17.35,2.2-35.04,9.84-50.68
		C871.26,99.77,883.12,87.11,897.47,78.55z"/>
	<path fill="#FFFFFF" d="M456.42,595.66c8.91-2.1,18.89-0.979,26.43,4.47c5.08,3.5,9.56,9.26,9.1,15.721
		c-0.53,4.369-6.19,6.46-9.51,3.689c-2.62-2.82-3.84-6.67-6.56-9.42c-4.93-5.45-13.82-5.92-19.9-2.189
		c-5.41,3.42-8.1,9.85-8.74,16.02c-0.67,7.41-0.51,15.58,3.91,21.91c5.67,8.22,19.4,8.67,25.65,0.909
		c2.23-2.689,3.09-6.159,4.771-9.169c2.33-4.471,10.18-2.49,10.58,2.46c0.36,7.55-4.5,14.459-10.54,18.56
		c-7.29,4.949-16.65,5.199-25.05,3.78c-7.34-1.261-13.85-5.9-17.75-12.19c-6.06-9.62-6.85-21.8-4.28-32.66
		C437.09,606.939,445.72,598.069,456.42,595.66z"/>
	<g>
		<path fill="#FFFFFF" d="M815.93,595.939c4.98-2.899,12.22-0.819,14.22,4.801c6.69,16.399,13.27,32.85,19.96,49.25
			c0.92,2.51,2.08,5.11,1.84,7.86c-0.67,4.149-5.8,6.609-9.49,4.669c-1.76-0.939-2.68-2.779-3.47-4.5
			c-1.69-3.81-3.1-7.729-4.54-11.63c-8.7-0.2-17.42-0.27-26.1-0.02c-3.41,4.58-3.58,11.09-7.39,15.55
			c-3.74,3.13-10.5,0.061-10.42-4.92c0.37-3.811,2.18-7.26,3.51-10.79c5.18-13.21,10.43-26.399,15.57-39.62
			C811.2,602.8,812.3,598.33,815.93,595.939z M811.54,635.96c6.31,0.07,12.63,0.08,18.95-0.01c-2.92-8.83-6.18-17.55-9.51-26.23
			C817.55,618.36,814.48,627.14,811.54,635.96z"/>
	</g>
	<path fill="#FFFFFF" d="M1024.359,595.3c2.791-1.1,6.631-0.81,8.48,1.84c1.48,1.94,1.32,4.521,1.43,6.841
		c-0.029,16.68-0.029,33.37,0.011,50.05c-0.101,2.289-0.03,4.859-1.54,6.76c-2.51,3.149-7.971,3.149-10.471,0
		c-1.529-1.9-1.47-4.479-1.55-6.771c0.05-17.02,0-34.039,0.03-51.06C1020.64,600.05,1021.43,596.6,1024.359,595.3z"/>
	<g>
		<path fill="#FFFFFF" d="M1123.43,595.681c10.471-2.2,22.45-1.081,30.99,5.909c6.7,5.4,9.97,13.99,10.7,22.37
			c0.72,9.33-0.42,19.351-6.021,27.15c-4.359,6.359-11.6,10.35-19.14,11.49c-9.26,1.39-19.43,0.279-27.17-5.36
			c-7.13-5.11-10.87-13.721-11.931-22.21c-1.039-8.79-0.14-18.15,4.311-25.95C1108.92,602.189,1115.85,597.42,1123.43,595.681z
			 M1127.359,606.33c-7.25,1.98-11.579,9.2-12.609,16.271c-1.24,8.069-0.391,17.189,4.939,23.719
			c5.83,7.181,17.561,7.911,24.5,1.931c4.681-4.02,6.811-10.25,7.23-16.26c0.46-6.82-0.38-14.21-4.62-19.81
			C1142.439,606.34,1134.189,604.189,1127.359,606.33z"/>
	</g>
	<path fill="#FFFFFF" d="M1233.26,597.29c2.96-3.64,9.33-3.46,12.07,0.36c9.76,14.169,18.65,28.95,28.73,42.89
		c0.549-13.45-0.11-26.92,0.31-40.359c-0.06-4.9,6.26-7.091,9.83-4.331c2.43,1.891,2.489,5.261,2.569,8.081
		c-0.06,16.709,0,33.43-0.029,50.139c-0.11,2.94-0.53,6.631-3.45,8.161c-4.181,2.229-9.54,0.38-12.03-3.511
		c-9.38-13.45-17.8-27.569-27.15-41.05c-0.359,13.11,0.16,26.23-0.239,39.33c0.08,4.28-4.64,7.39-8.57,5.78
		c-3.239-1.011-4.19-4.711-4.05-7.711c0-16.709,0.03-33.43-0.02-50.13C1231.25,602.29,1231.33,599.33,1233.26,597.29z"/>
	<path fill="#FFFFFF" d="M1370.4,595.64c8.27-1.649,17.569-1.6,24.949,3.011c4.51,2.77,8.19,7.76,7.66,13.28
		c-0.35,4.25-5.8,6.889-9.31,4.369c-3.03-3.05-4-7.8-7.761-10.2c-3.239-1.96-7.27-1.84-10.89-1.359c-3.649,0.6-7.729,3.19-7.83,7.26
		c-0.159,3.79,3.65,5.92,6.74,7.05c8.61,2.92,18.29,3.59,25.8,9.19c8.96,6.93,7.96,22.09-0.63,28.93
		c-7.85,6.36-18.81,6.891-28.35,5.08c-8.82-1.66-16.82-9.069-17.521-18.26c-0.5-4.14,4.061-7.57,7.91-6.13
		c3.5,1.17,4.21,5.279,5.88,8.13c3.761,8.76,16.73,9.11,23.11,3.18c4.05-3.689,2.59-10.859-2.4-12.93
		c-8.8-3.91-19.24-3.89-27.13-9.88c-6.93-5.21-8-15.971-3.11-22.891C1360.48,599.181,1365.43,596.75,1370.4,595.64z"/>
	<g>
		<path fill="#FFFFFF" d="M560.57,597.561c2.91-2.36,6.95-1.7,10.439-1.841c8.6,0.23,17.26-0.45,25.84,0.55
			c6.97,0.811,13.35,5.961,14.95,12.9c1.1,5.55,0.68,11.98-3.24,16.399c-3.02,3.62-7.67,5.091-11.97,6.581
			c7.01,5.619,12.32,13.169,15.82,21.41c0.65,1.959,1.73,4.229,0.56,6.229c-2.05,4.279-8.79,4.41-11.53,0.79
			c-5.82-7.391-9.07-16.6-15.61-23.44c-3.52-3.81-9.08-3.42-13.8-3.399c-0.2,7.75,0.24,15.51-0.19,23.25
			c-0.03,3.579-3.28,6.49-6.84,6.13c-3.88,0.311-6.75-3.439-6.46-7.09c-0.11-17.021,0.03-34.03-0.07-51.04
			C558.51,602.42,558.39,599.36,560.57,597.561z M572.01,606.02c-0.03,5.98-0.03,11.971,0,17.961
			c5.561-0.05,11.13,0.289,16.67-0.271c3.271-0.35,6.91-1.32,8.811-4.26c2.7-4.62,0.28-11.511-5.14-12.69
			C585.65,605.5,578.78,606.13,572.01,606.02z"/>
	</g>
	<path fill="#FFFFFF" d="M681.47,597.51c2.35-1.94,5.65-1.67,8.521-1.79c11.35,0.15,22.7-0.18,34.04,0.15
		c4.38-0.42,6.77,5.17,4.35,8.44c-1.44,2-4.15,1.879-6.34,1.97c-9.66-0.03-19.32-0.011-28.97-0.05
		c-0.12,5.319-0.1,10.649-0.04,15.979c9.6,0.229,19.21-0.2,28.8,0.17c3.92-0.149,6.21,4.551,4.26,7.76
		c-1.41,2.461-4.54,2.5-7.02,2.601c-8.69,0.07-17.37-0.09-26.05,0.05c-0.05,6.141-0.05,12.279,0.01,18.41
		c10.93,0.23,21.87-0.17,32.8,0.17c3.61,0.04,5.65,4.46,4.11,7.49c-0.97,2.84-4.32,3.18-6.86,3.159
		c-11.38-0.01-22.76-0.05-34.13,0.011c-2.51-0.04-5.28,0.02-7.36-1.58c-2.12-1.811-2.28-4.811-2.34-7.39
		c0-15.7,0.03-31.41-0.02-47.121C679.31,603.05,679.14,599.64,681.47,597.51z"/>
	<path fill="#FFFFFF" d="M904.58,596.52c2.67-1.039,5.609-0.75,8.42-0.8c13.01,0.15,26.029-0.17,39.029,0.141
		c2.61-0.041,5.421,1.55,5.811,4.34c0.83,3.119-1.54,6.619-4.85,6.689c-5.521,0.341-11.051-0.079-16.57,0.23
		c0.17,15.63,0.01,31.26,0.1,46.89c-0.01,2.95-0.26,6.71-3.24,8.23c-4.02,2.5-10.199-0.26-10.149-5.25
		c-0.33-16.65-0.01-33.32-0.14-49.98c-5.641-0.16-11.28,0.271-16.891-0.18C900.98,606.55,900.05,598.36,904.58,596.52z"/>
</g>
<g>
	<path fill="#FFB000" d="M788.92,209.89c18.45-15.99,41.93-26.19,66.3-28.19c0.01,24.05,0.13,48.11-0.06,72.16l-0.45,0.73
		c-12.32,3.29-23.24,11.77-28.9,23.25c-3.45,6.49-4.83,13.87-4.89,21.17c-24.15-0.02-48.3,0-72.45-0.02
		C748.21,265.28,763.32,231.84,788.92,209.89z"/>
</g>
<g>
	<path fill="#00C9FF" d="M875.78,181.67c37.17,2.44,72.25,24.38,91.18,56.37c11.16,18.25,16.729,39.57,16.87,60.9
		c-24.58,0.15-49.17,0.01-73.761,0.07c0.19-11.19-3.829-22.4-11.359-30.71c-5.86-6.74-13.87-11.33-22.42-13.71l-0.46-0.73
		C875.65,229.8,875.76,205.73,875.78,181.67z"/>
</g>
<g>
	<path fill="#FFFFFF" d="M190.6,188.76c5.1-0.76,10.26-1.12,15.42-1.26c56-0.06,111.99,0.07,167.99-0.06
		c0.57,18.51,0.09,37.04,0.24,55.56c-0.02,5.19,0.18,10.39-0.25,15.57c-52-0.14-104-0.03-156-0.06c-5.54,0.15-11.21-0.61-16.62,0.94
		c-10.63,2.81-19.85,10.31-24.95,20.02c-4.65,9-5.35,19.83-2.43,29.47c3.05,10.08,10.77,18.27,19.94,23.16
		c4.04,2.01,8.4,3.78,13,3.67c27.02-0.05,54.04,0,81.07-0.03c8.08,0.01,16.19,0.55,24.12,2.2c19.65,3.91,37.72,14.03,52.49,27.4
		c4.09,3.37,6.48,8.19,9.95,12.12c15.109,19.08,23.78,43.19,24.18,67.53c-0.3,19.34-5.77,38.529-15.6,55.19
		c-4.32,7.739-10.25,14.369-15.4,21.529c-13.51,13.471-30.27,23.95-48.63,29.33c-16.91,5.08-34.7,3.82-52.12,3.96
		c-47.99-0.01-95.99,0.02-143.99-0.01c-0.02-23.66-0.02-47.32,0-70.98c53-0.02,106-0.01,159,0c4.45-0.06,9,0.37,13.36-0.8
		c10.89-2.729,20.33-10.36,25.53-20.279c3.6-6.991,4.78-15.101,3.78-22.87c-2.12-19.28-21.47-34.641-40.68-32.82
		c-26.33,0.029-52.66,0.01-78.98,0.01c-18.37-0.13-36.56-5.47-52.2-15.08c-10.291-6.32-20.25-13.67-27.641-23.33
		c-14.75-17.28-24.47-39.08-26.27-61.81c-1.56-17.9,1.17-36.24,8.51-52.68c5.7-13.31,14.27-25.25,24.25-35.69
		C147.91,203.41,168.39,192.05,190.6,188.76z"/>
	<path fill="#FFFFFF" d="M427.8,187.03c24.99-0.021,49.98-0.1,74.97,0.03c0.02,25.23-0.18,50.46,0.1,75.69
		c59.84,0.04,119.69-0.1,179.53,0.07c0.09,24.99,0.29,49.98-0.1,74.96c-59.83-0.04-119.66-0.09-179.5,0.03
		c-0.15,23.73,0.01,47.459-0.07,71.19c-0.24,19.87,8.59,39.61,23.38,52.86c11.54,10.22,26.41,16.709,41.8,17.89
		c17.04,1.51,34.44-3.561,48.22-13.64c18.02-13.07,28.8-35.12,28.75-57.311c24.96-0.05,49.94-0.18,74.9,0.07
		c0.46,37.38-14.64,74.49-40.56,101.34c-23.37,24.44-55.52,40.43-89.2,43.89c-23.08,2.42-46.84-0.199-68.53-8.619
		c-27.46-10.511-51.69-29.37-68.24-53.7c-16.22-23.63-25.46-52.07-25.51-80.78C427.79,336.34,427.67,261.68,427.8,187.03z"/>
	<g>
		<path fill="#FFFFFF" d="M1227.01,187.01c24.99-0.02,49.98-0.02,74.98,0c0.029,65,0,129.99,0.01,194.99
			c-0.189,19.78,1.15,39.84-3.47,59.27c-7.091,31.591-25.05,60.641-50.2,81.03c-15.27,12.37-33.03,21.681-51.91,27.14
			c-35.4,9.891-74.72,6.671-107.359-10.56c-35.07-17.6-61.921-50.25-73.16-87.76c-8.41-28.82-8.081-60.28,1.399-88.79
			c9.81-29.17,28.95-55.17,54.181-72.84c23.159-16.36,51.129-25.96,79.539-26.54c26.41-1.14,52.721,5.89,75.95,18.26
			C1227.05,249.81,1226.96,218.41,1227.01,187.01z M1147.35,338.32c-16.13,1.9-31.52,9.53-42.779,21.23
			c-11.881,12.421-19.08,29.261-19.641,46.46c-1.09,22.461,9.271,45.18,27.09,58.94c14.881,11.55,34.4,16.989,53.101,14.439
			c18.69-2.35,36.42-12.43,47.66-27.609c9.12-12.261,14.3-27.47,14.25-42.78c0.13-20.76-9.351-41.45-25.36-54.71
			C1186.74,341.87,1166.64,335.85,1147.35,338.32z"/>
	</g>
	<path fill="#FFFFFF" d="M1331.01,187.01c24.92,0.01,49.84-0.09,74.76,0.05c-0.039,25.29-0.039,50.59,0,75.88
		c-24.92,0.13-49.84,0.04-74.76,0.05C1330.99,237.66,1330.99,212.34,1331.01,187.01z"/>
	<g>
		<path fill="#FFFFFF" d="M1568.35,263.35c19.69-1.54,39.771,0.45,58.551,6.74c32.869,10.9,61.739,33.72,79.34,63.62
			c20.22,33.05,25.56,74.261,16.22,111.7c-7.97,30.87-26.229,59.07-51.44,78.64c-14.939,11.65-32.16,20.41-50.38,25.58
			c-36.159,9.939-76.26,6.11-109.229-12.061c-28.92-15.339-52.12-40.919-64.96-71c-16.48-38.289-15.601-83.819,2.739-121.31
			c12.73-26.59,33.761-49.14,59.5-63.55C1526.93,271.35,1547.41,264.89,1568.35,263.35z M1509.819,342.01
			c-9.089,37.03-18.05,74.09-26.899,111.18c18.061,0.16,36.13,0.021,54.2,0.061c0.26,7.01,0.1,14.03,0.1,21.05
			c7.24,0.37,14.511,0.19,21.771,0.11c0.05-7.061-0.08-14.13,0.079-21.189c4.631,0.06,9.261,0.049,13.911-0.011
			c0.039-7.21,0.02-14.42,0.02-21.62c-4.641-0.109-9.26-0.13-13.88,0c-0.271-6.93-0.04-13.869-0.15-20.8
			c-7.239-0.05-14.489-0.16-21.72,0.08c-0.04,6.84,0.08,13.69-0.07,20.53c-8.88,0.149-17.75,0.18-26.619-0.021
			c6.859-29.85,14.369-59.56,21.469-89.36C1524.62,341.98,1517.22,341.99,1509.819,342.01z M1600.4,341.99
			c-3.61,19.62-7.9,39.109-11.49,58.73c7.279-0.07,14.58,0.27,21.859-0.121c3.95-1.569,7.57-4.1,11.881-4.75
			c11.439-2.26,24.76-0.34,33.209,8.311c5.771,5.68,8.15,13.92,8.311,21.84c0.84,13.819-9.641,27.45-23.27,30
			c-9.801,1.95-20.851,0.45-28.59-6.27c-6.621-5.44-10.591-13.601-11.281-22.091c-6.829-0.25-13.659-0.149-20.479-0.07
			c-0.17,18.45,10.71,36.241,26.79,45.07c12.84,7.36,28.93,8.671,42.83,3.61c16.76-5.89,29.96-20.939,33.52-38.36
			c3.33-16.32-0.8-34.149-11.76-46.829c-7.6-9.83-20.07-14.23-32.01-15.69c-8.23-1-16.46,0.729-24.17,3.53
			c1-4.97,2.14-9.92,3.34-14.851c15.7-0.14,31.41,0.02,47.12-0.07c0.069-7.4,0.09-14.79-0.021-22.17
			C1644.27,341.82,1622.319,341.46,1600.4,341.99z"/>
	</g>
	<path fill="#FFFFFF" d="M1331,281.59c24.93-0.07,49.87-0.29,74.78,0.11c-0.07,91.08-0.04,182.16-0.011,273.239
		c-24.92,0.141-49.84,0.041-74.76,0.051C1330.99,463.85,1331,372.721,1331,281.59z"/>
	<path fill="#FFFFFF" d="M748.02,319.8c24.32-0.09,48.64-0.09,72.95,0c0.1,11.75-0.04,23.51,0.05,35.27
		c0.21,11.43,5.03,22.71,13.28,30.64c10.25,10.521,26.04,15.14,40.36,11.979c19.05-3.729,34.25-21.25,35.25-40.64
		c0.24-12.42-0.021-24.84,0.119-37.25c24.311-0.09,48.631-0.09,72.951,0c0.06,40.06,0,80.131,0.029,120.2
		c-0.22,31.939-14.76,63.29-38.43,84.62c-22.98,21-54.59,32.17-85.67,30.16c-34.55-1.5-67.81-19.6-88.16-47.511
		C756.48,487.9,748.22,464.1,748,440C748.02,399.931,747.96,359.87,748.02,319.8z"/>
</g>
<g>
	<path fill="#FF0000" d="M861.31,273.31c13.86-2.8,28.45,8.45,28.89,22.66c0.13,19.34,0,38.69,0.07,58.03
		c0.11,6.17-2.19,12.36-6.38,16.91c-6.62,7.37-17.85,10.12-27.09,6.5c-9.24-3.3-15.97-12.56-16.04-22.39
		c-0.03-16.67,0-33.35-0.01-50.03c0.03-5.54-0.53-11.33,1.74-16.56C845.58,280.58,852.97,274.64,861.31,273.31z"/>
</g>
</svg>
